<?xml version="1.0" encoding="utf-8"?>
<!-- Generator: Adobe Illustrator 25.0.0, SVG Export Plug-In . SVG Version: 6.00 Build 0)  -->
<svg version="1.1" id="Capa_1" xmlns="http://www.w3.org/2000/svg" xmlns:xlink="http://www.w3.org/1999/xlink" x="0px" y="0px"
	 viewBox="0 0 194.4 194.4" style="enable-background:new 0 0 194.4 194.4;" xml:space="preserve">
<style type="text/css">
	.st0{fill:#C7CBD6;}
</style>
<g>
	<path class="st0" d="M192.2,34.5L159.9,2.2c-1.4-1.4-3.3-2.2-5.3-2.2s-3.9,0.8-5.3,2.2l-32.3,32.3c0,0,0,0,0,0l-62,62
		c-1.4,1.4-2.1,3.2-2.2,5.1l-1,33.4c-0.1,2.1,0.7,4.1,2.2,5.5c1.4,1.4,3.3,2.2,5.3,2.2c0.1,0,0.2,0,0.2,0l33.4-1
		c1.9-0.1,3.7-0.8,5.1-2.2l94.4-94.4C195.2,42.2,195.2,37.5,192.2,34.5z M154.6,61.6l-21.7-21.7l21.7-21.7l21.7,21.7L154.6,61.6z
		 M89.3,126.8l-22.4,0.7l0.7-22.4l54.7-54.7L144,72.2L89.3,126.8z"/>
	<path class="st0" d="M132.2,117.1c-4.1,0-7.5,3.4-7.5,7.5v54.8H15V69.7h54.8c4.1,0,7.5-3.4,7.5-7.5s-3.4-7.5-7.5-7.5H7.5
		c-4.1,0-7.5,3.4-7.5,7.5v124.7c0,4.1,3.4,7.5,7.5,7.5h124.7c4.1,0,7.5-3.4,7.5-7.5v-62.3C139.7,120.4,136.3,117.1,132.2,117.1z"/>
</g>
</svg>
