<svg xmlns="http://www.w3.org/2000/svg" xmlns:xlink="http://www.w3.org/1999/xlink" viewBox="0 0 91.43 91.43"><defs><style>.cls-1{fill:none;}.cls-2{clip-path:url(#clip-path);}.cls-3{fill:#fc611f;}.cls-4{fill:#fdc00f;}.cls-5{fill:#fee69f;}.cls-6{opacity:0.1;}.cls-7{fill:#346178;}.cls-8{fill:#27495a;}.cls-9{fill:#fff;opacity:0.4;}</style><clipPath id="clip-path"><path class="cls-1" d="M91.43,45.71A45.72,45.72,0,1,1,45.71,0,45.72,45.72,0,0,1,91.43,45.71Z"/></clipPath></defs><g id="Calque_2" data-name="Calque 2"><g id="Layer_1" data-name="Layer 1"><g class="cls-2"><path class="cls-3" d="M91.43,45.71A45.72,45.72,0,1,1,45.71,0,45.72,45.72,0,0,1,91.43,45.71Z"/><path class="cls-4" d="M63.65,34.61H28s-3.55,15.07-.75,19.73,18.57,1,18.57,1,15.79,3.67,18.58-1S63.65,34.61,63.65,34.61Z"/><path class="cls-5" d="M54,75.87c.12-.3.23-.59.34-.88.23-.59.44-1.17.64-1.72l0-.08a64.18,64.18,0,0,0,2-6.69l-.59,0a1.39,1.39,0,0,1-1.24-1.23L53.67,47.34H37.76L36.19,65.22a1.26,1.26,0,0,1-1,1.21l-.87.07a62.09,62.09,0,0,0,2,6.73c.2.57.42,1.16.65,1.78l.34.86c.08.22.17.44.26.66.23.58.47,1.16.73,1.77A118.64,118.64,0,0,0,45,91.43h1.35A118.64,118.64,0,0,0,53,78.3c.26-.61.5-1.19.73-1.77C53.86,76.31,54,76.09,54,75.87Z"/><path class="cls-5" d="M63.06,39.44c-1.31-.8-3.22.74-4.28,3.45s-.86,5.54.45,6.34,3.22-.74,4.27-3.44S64.36,40.24,63.06,39.44Z"/><path class="cls-5" d="M28.37,39.44c1.31-.8,3.22.74,4.28,3.45s.85,5.54-.45,6.34-3.22-.74-4.28-3.44S27.07,40.24,28.37,39.44Z"/><path class="cls-6" d="M45.71,61.28c-3.21,0-6.22-1.54-8.82-4l-.09,1c2.62,2.54,5.66,4.12,8.91,4.12s6.3-1.56,8.92-4.11l-.09-1.06C51.94,59.74,48.93,61.28,45.71,61.28Z"/><path class="cls-7" d="M38.39,78.3a74.85,74.85,0,0,1-4-11.8c-1.12.1-2.7.27-4.49.5-1.41.19-2.94.42-4.49.71l-1.17,7.86h3.84l-2.46,3.67,8.5,12.19H45A118.64,118.64,0,0,1,38.39,78.3Z"/><path class="cls-7" d="M65.84,79.24l-2.46-3.67h3.84l-1.17-7.86c-1.55-.29-3.09-.52-4.49-.71-1.79-.23-3.37-.4-4.49-.5a74.85,74.85,0,0,1-4,11.8,118.64,118.64,0,0,1-6.65,13.13h11Z"/><path class="cls-7" d="M28.05,75.57H24.21l1.17-7.86C20.6,68.58,15.67,70,14,72.08c-3,3.82,0,19.35,0,19.35H34.09l-8.5-12.19Z"/><path class="cls-7" d="M77.39,72.08c-1.63-2.11-6.56-3.5-11.34-4.37l1.17,7.86H63.38l2.46,3.67-8.5,12.19h20S80.35,75.9,77.39,72.08Z"/><path class="cls-8" d="M25.59,79.24l2.46-3.67H24.21l1.17-7.86-1.19.22-1.31,8.78h3L24.2,79.25l8.49,12.18h1.4Z"/><path class="cls-8" d="M58.74,91.43l8.49-12.18-1.71-2.54h3l-1.31-8.78-1.19-.22,1.17,7.86H63.38l2.46,3.67-8.5,12.19Z"/><path class="cls-7" d="M61.51,49.23A2.29,2.29,0,1,1,59.23,47,2.28,2.28,0,0,1,61.51,49.23Z"/><path class="cls-7" d="M34.49,49.23A2.29,2.29,0,1,1,32.2,47,2.29,2.29,0,0,1,34.49,49.23Z"/><path class="cls-5" d="M63.43,34.61c0,12.52-7.93,26.67-17.72,26.67S28,47.13,28,34.61s7.93-18.69,17.71-18.69S63.43,22.08,63.43,34.61Z"/><path class="cls-9" d="M28,34.61c0,12.52,7.93,26.67,17.71,26.67V15.92C35.93,15.92,28,22.08,28,34.61Z"/><path class="cls-4" d="M42.51,27.68s1.87,4.67,20.83,4.68c-.9-11-8.44-16.44-17.63-16.44C35.93,15.92,28,22.08,28,34.61A17.56,17.56,0,0,0,42.51,27.68Z"/></g></g></g></svg>