<svg xmlns="http://www.w3.org/2000/svg" xmlns:xlink="http://www.w3.org/1999/xlink" viewBox="0 0 91.43 91.43"><defs><style>.cls-1{fill:none;}.cls-2{clip-path:url(#clip-path);}.cls-3{fill:#8fc3d8;}.cls-4{fill:#fee69f;}.cls-5{opacity:0.1;}.cls-6{fill:#fdc00f;}.cls-7,.cls-8{fill:#fff;}.cls-7{opacity:0.4;}</style><clipPath id="clip-path"><circle class="cls-1" cx="45.71" cy="45.71" r="45.71" transform="translate(-4.25 4.68) rotate(-5.6)"/></clipPath></defs><g id="Calque_2" data-name="Calque 2"><g id="Layer_1" data-name="Layer 1"><g class="cls-2"><circle class="cls-3" cx="45.71" cy="45.71" r="45.71" transform="translate(-4.25 4.68) rotate(-5.6)"/><path class="cls-4" d="M55.24,65.22,53.67,47.34H37.76l-1.67,19s-2.7.18-6.23.64c3.29,4.9,9.15,8.85,15.85,8.85S58.27,71.9,61.56,67c-2.14-.28-4-.45-5.08-.55A1.39,1.39,0,0,1,55.24,65.22Z"/><path class="cls-4" d="M63.06,39.44c-1.31-.8-3.22.74-4.28,3.45s-.86,5.54.45,6.34,3.22-.74,4.27-3.44S64.36,40.24,63.06,39.44Z"/><path class="cls-4" d="M28.37,39.44c1.31-.8,3.22.74,4.28,3.45s.85,5.54-.45,6.34-3.22-.74-4.28-3.44S27.07,40.24,28.37,39.44Z"/><path class="cls-5" d="M45.71,61.28a12.86,12.86,0,0,1-8.82-4l-.09,1c2.62,2.54,5.66,4.12,8.91,4.12s6.3-1.57,8.92-4.11l-.09-1.06A12.86,12.86,0,0,1,45.71,61.28Z"/><path class="cls-6" d="M77.39,72.08C75.23,69.29,67.3,67.76,61.56,67c-3.29,4.9-9.14,8.85-15.85,8.85S33.15,71.9,29.86,67c-5.73.76-13.67,2.29-15.82,5.08-3,3.82,0,19.35,0,19.35H77.39S80.35,75.9,77.39,72.08Z"/><path class="cls-6" d="M60.1,47l1.72,5a1.81,1.81,0,1,1-3.43,1.18,1.77,1.77,0,0,1,0-1.18Z"/><path class="cls-6" d="M31.32,47l1.72,5a1.81,1.81,0,1,1-3.43,1.18,1.77,1.77,0,0,1,0-1.18Z"/><path class="cls-4" d="M63.43,34.61c0,12.52-7.93,26.67-17.72,26.67S28,47.13,28,34.61s7.93-18.69,17.71-18.69S63.43,22.08,63.43,34.61Z"/><path class="cls-7" d="M28,34.61c0,12.52,7.93,26.67,17.71,26.67V15.92C35.93,15.92,28,22.08,28,34.61Z"/><path class="cls-8" d="M54.63,14.59c0,3.36-4,6.08-8.92,6.08S36.8,18,36.8,14.59s4-6.07,8.91-6.07S54.63,11.24,54.63,14.59Z"/><path class="cls-6" d="M54.63,19.7c0,3.36-4,6.08-8.92,6.08S36.8,23.06,36.8,19.7s4-6.07,8.91-6.07S54.63,16.35,54.63,19.7Z"/><path class="cls-8" d="M45.71,15.92C35.93,15.92,28,22.08,28,34.61a31.72,31.72,0,0,0,.37,4.83h0s1.87-3.35,10.57-4.28,12.73-5.87,12.73-5.87,2.85,6,11.42,9.94a33,33,0,0,0,.34-4.62C63.43,22.08,55.5,15.92,45.71,15.92Z"/></g></g></g></svg>