<svg xmlns="http://www.w3.org/2000/svg" xmlns:xlink="http://www.w3.org/1999/xlink" viewBox="0 0 91.43 91.43"><defs><style>.cls-1{fill:none;}.cls-2{clip-path:url(#clip-path);}.cls-3{fill:#346178;}.cls-4{fill:#fee69f;}.cls-5{fill:#3f3004;}.cls-6{opacity:0.1;}.cls-7{fill:#fdc00f;}.cls-8{fill:#fff;opacity:0.4;}.cls-9{fill:#fc611f;}</style><clipPath id="clip-path"><path class="cls-1" d="M91.43,45.71A45.72,45.72,0,1,1,45.71,0,45.72,45.72,0,0,1,91.43,45.71Z"/></clipPath></defs><g id="Calque_2" data-name="Calque 2"><g id="Layer_1" data-name="Layer 1"><g class="cls-2"><path class="cls-3" d="M91.43,45.71A45.72,45.72,0,1,1,45.71,0,45.72,45.72,0,0,1,91.43,45.71Z"/><path class="cls-4" d="M56.47,66.46a1.4,1.4,0,0,1-1.23-1.24L53.66,47.35H37.76l-1.67,19s-2.69.17-6.22.64l1.29,8.18a27.94,27.94,0,0,0,29.11,0L61.56,67C59.42,66.72,57.59,66.55,56.47,66.46Z"/><path class="cls-5" d="M73.92,35.76a8.52,8.52,0,0,0-3.5-6.89,6.52,6.52,0,0,0-6.11-8.2,5.7,5.7,0,0,0-4.87-4.82A9.4,9.4,0,0,0,47.05,11.3a10.19,10.19,0,0,0-16.64,2.91,6.59,6.59,0,0,0-5.18,6.43c0,.11,0,.22,0,.33a6.53,6.53,0,0,0-4.33,7.9A8.53,8.53,0,0,0,22.16,43.4a5.86,5.86,0,0,0-.08.94,6.52,6.52,0,0,0,5.12,6.37,6.14,6.14,0,0,0-.08.75,5.64,5.64,0,1,0,7.74-5.22,6.61,6.61,0,0,0,.28-1.9,6.46,6.46,0,0,0-1.72-4.4,8.48,8.48,0,0,0,1.09-4,27.11,27.11,0,0,1,4.43-.8c8.7-.93,12.73-5.87,12.73-5.87a20.44,20.44,0,0,0,5.18,6c0,.14,0,.28,0,.43a8.56,8.56,0,0,0,1.09,4.18,6.5,6.5,0,0,0-1.71,4.4,6.61,6.61,0,0,0,.28,1.9,5.63,5.63,0,1,0,7.73,5.22,6.15,6.15,0,0,0-.07-.75,6.52,6.52,0,0,0,5.11-6.37,5.86,5.86,0,0,0-.07-.94A8.53,8.53,0,0,0,73.92,35.76Z"/><path class="cls-6" d="M45.71,61.28a12.89,12.89,0,0,1-8.82-4l-.09,1c2.62,2.55,5.66,4.12,8.91,4.12s6.3-1.56,8.92-4.11l-.1-1.05A12.87,12.87,0,0,1,45.71,61.28Z"/><path class="cls-4" d="M63.05,39.44c-1.3-.8-3.22.75-4.27,3.45s-.86,5.55.45,6.35,3.21-.75,4.27-3.45S64.36,40.24,63.05,39.44Z"/><path class="cls-4" d="M28.37,39.44c1.3-.8,3.22.75,4.28,3.45s.85,5.55-.45,6.35-3.22-.75-4.28-3.45S27.06,40.24,28.37,39.44Z"/><path class="cls-7" d="M60,53.38a2.79,2.79,0,1,1,2.78-2.79A2.79,2.79,0,0,1,60,53.38Zm0-4.57a1.79,1.79,0,1,0,1.78,1.78A1.79,1.79,0,0,0,60,48.81Z"/><path class="cls-7" d="M31.43,53.38a2.79,2.79,0,1,1,2.79-2.79A2.79,2.79,0,0,1,31.43,53.38Zm0-4.58a1.79,1.79,0,1,0,1.79,1.79A1.79,1.79,0,0,0,31.43,48.8Z"/><path class="cls-4" d="M51.67,29.3s-4,4.94-12.73,5.87-10.57,4.27-10.57,4.27h0C30,50.51,37.17,61.28,45.71,61.28S61.46,50.37,63.08,39.23C54.52,35.24,51.67,29.3,51.67,29.3Z"/><path class="cls-8" d="M45.71,33.41a23.12,23.12,0,0,1-6.77,1.76c-8.7.92-10.57,4.27-10.57,4.27h0C30,50.51,37.17,61.28,45.71,61.28h0Z"/><path class="cls-9" d="M77.39,72.08c-2.15-2.79-10.1-4.31-15.83-5.07l-1.29,8.18L57.71,91.43H77.39S80.36,75.91,77.39,72.08Z"/><path class="cls-9" d="M29.87,67c-5.74.76-13.67,2.28-15.83,5.07-3,3.83,0,19.35,0,19.35H33.73L31.16,75.19Z"/><path class="cls-7" d="M57.71,91.43l2.56-16.24a27.94,27.94,0,0,1-29.11,0l2.57,16.24Z"/></g></g></g></svg>