<svg xmlns="http://www.w3.org/2000/svg" xmlns:xlink="http://www.w3.org/1999/xlink" viewBox="0 0 91.43 91.43"><defs><style>.cls-1{fill:none;}.cls-2{clip-path:url(#clip-path);}.cls-3{fill:#fdc00f;}.cls-4{fill:#3f3004;}.cls-5{fill:#fee69f;}.cls-6{opacity:0.1;}.cls-7,.cls-8{fill:#fff;}.cls-8{opacity:0.4;}.cls-9{fill:#346178;}.cls-10{fill:#8fc3d8;}</style><clipPath id="clip-path"><path class="cls-1" d="M91.43,45.72A45.72,45.72,0,1,1,45.71,0,45.72,45.72,0,0,1,91.43,45.72Z"/></clipPath></defs><g id="Calque_2" data-name="Calque 2"><g id="Layer_1" data-name="Layer 1"><g class="cls-2"><path class="cls-3" d="M91.43,45.72A45.72,45.72,0,1,1,45.71,0,45.72,45.72,0,0,1,91.43,45.72Z"/><path class="cls-4" d="M63.63,35.14H27.79s1.92,19.36-5.7,23.58a52.37,52.37,0,0,0,23.62,5.75,52.31,52.31,0,0,0,23.62-5.75C61.71,54.5,63.63,35.14,63.63,35.14Z"/><path class="cls-5" d="M67.24,67.94l-1.19-.24c-1.55-.28-3.09-.51-4.49-.7-1.8-.23-3.37-.39-4.49-.5l-.59,0a1.39,1.39,0,0,1-1.24-1.23L53.67,47.34H37.76L36.19,65.22a1.26,1.26,0,0,1-1,1.21l-.87.07c-1.12.11-2.7.27-4.5.5-1.4.19-2.93.42-4.48.7l-1.16.23c-4.42.89-8.69,2.21-10.18,4.15-3,3.82,0,19.35,0,19.35H77.39s3-15.53,0-19.35C75.9,70.14,71.63,68.82,67.24,67.94Z"/><path class="cls-5" d="M63.06,39.44c-1.31-.8-3.22.74-4.28,3.45s-.85,5.54.45,6.34,3.22-.74,4.27-3.44S64.36,40.24,63.06,39.44Z"/><path class="cls-5" d="M28.37,39.44c1.31-.8,3.22.74,4.28,3.45s.85,5.54-.45,6.34-3.22-.74-4.28-3.44S27.07,40.24,28.37,39.44Z"/><path class="cls-6" d="M45.71,61.28c-3.21,0-6.22-1.54-8.82-4l-.09,1c2.62,2.54,5.66,4.12,8.91,4.12s6.3-1.56,8.92-4.11l-.09-1.06C51.94,59.74,48.93,61.28,45.71,61.28Z"/><path class="cls-7" d="M61.51,50.53c0,2-1,3.59-2.28,3.59s-2.29-1.61-2.29-3.59S58,47,59.23,47,61.51,48.55,61.51,50.53Z"/><path class="cls-7" d="M34.48,50.53c0,2-1,3.59-2.28,3.59s-2.29-1.61-2.29-3.59S30.94,47,32.2,47,34.48,48.55,34.48,50.53Z"/><path class="cls-5" d="M63.43,34.61c0,12.52-7.93,26.67-17.72,26.67S28,47.13,28,34.61s7.93-18.69,17.71-18.69S63.43,22.08,63.43,34.61Z"/><path class="cls-8" d="M28,34.61c0,12.52,7.93,26.67,17.71,26.67V15.92C35.93,15.92,28,22.08,28,34.61Z"/><path class="cls-4" d="M63.27,29.56a19.76,19.76,0,0,0-1.68-5.16,15.19,15.19,0,0,0-3.73-4.82,16.58,16.58,0,0,0-5.69-3.2,21.07,21.07,0,0,0-6.46-1h0a21,21,0,0,0-6.45,1,16.63,16.63,0,0,0-5.7,3.2,15.33,15.33,0,0,0-3.73,4.82,20.1,20.1,0,0,0-1.67,5.16,22.68,22.68,0,0,0-.36,4.55c0,1.36.17,2.51.22,3.48.34,1.91.54,3,.54,3,0-1.21.13-5.37,2.63-7.27a50.36,50.36,0,0,0,14.52,2,50.26,50.26,0,0,0,14.52-2c2.51,1.9,2.66,6.06,2.64,7.27,0,0,.2-1.09.54-3,.05-1,.21-2.12.22-3.48A23.44,23.44,0,0,0,63.27,29.56Z"/><path class="cls-9" d="M24.22,67.93c-4.42.89-8.69,2.21-10.18,4.15-3,3.82,0,19.35,0,19.35H32.17L24.38,67.9Z"/><path class="cls-9" d="M77.39,72.08c-1.49-1.94-5.76-3.26-10.15-4.14l-.2,0L59.25,91.43H77.39S80.35,75.9,77.39,72.08Z"/><path class="cls-10" d="M45.71,84.17c-6.8,0-12.92-1.51-17.24-3.92l3.7,11.18H59.25L63,80.25C58.63,82.66,52.52,84.17,45.71,84.17Z"/><path class="cls-7" d="M36.37,67.87A1.34,1.34,0,1,1,36.15,66,1.32,1.32,0,0,1,36.37,67.87Z"/><path class="cls-7" d="M38.31,69.14a1.45,1.45,0,1,1-.39-2A1.45,1.45,0,0,1,38.31,69.14Z"/><path class="cls-7" d="M41.07,70.6a1.55,1.55,0,1,1-.65-2.1A1.55,1.55,0,0,1,41.07,70.6Z"/><path class="cls-7" d="M44.36,71.67a1.67,1.67,0,1,1-1.09-2.09A1.68,1.68,0,0,1,44.36,71.67Z"/><path class="cls-7" d="M47.79,71.72A1.78,1.78,0,1,1,46,69.94,1.78,1.78,0,0,1,47.79,71.72Z"/><path class="cls-7" d="M50.77,70.65a1.66,1.66,0,1,1-2.09-1.07A1.65,1.65,0,0,1,50.77,70.65Z"/><path class="cls-7" d="M53.48,69.1a1.57,1.57,0,0,1-.61,2.12,1.56,1.56,0,1,1,.61-2.12Z"/><path class="cls-7" d="M55.7,67.45a1.45,1.45,0,1,1-2-.32A1.44,1.44,0,0,1,55.7,67.45Z"/><path class="cls-7" d="M57.18,66.12A1.34,1.34,0,1,1,55.3,66,1.34,1.34,0,0,1,57.18,66.12Z"/></g></g></g></svg>