<svg xmlns="http://www.w3.org/2000/svg" xmlns:xlink="http://www.w3.org/1999/xlink" viewBox="0 0 91.43 91.43"><defs><style>.cls-1{fill:none;}.cls-2{clip-path:url(#clip-path);}.cls-3{fill:#fc611f;}.cls-4{fill:#fee69f;}.cls-5{opacity:0.1;}.cls-6{fill:#8fc3d8;}.cls-7{fill:#fff;opacity:0.4;}.cls-8{fill:#8f6c08;}</style><clipPath id="clip-path"><path class="cls-1" d="M91.43,45.72A45.72,45.72,0,1,1,45.71,0,45.72,45.72,0,0,1,91.43,45.72Z"/></clipPath></defs><g id="Calque_2" data-name="Calque 2"><g id="Layer_1" data-name="Layer 1"><g class="cls-2"><path class="cls-3" d="M91.43,45.72A45.72,45.72,0,1,1,45.71,0,45.72,45.72,0,0,1,91.43,45.72Z"/><path class="cls-4" d="M67.24,67.94l-1.19-.24c-1.55-.28-3.09-.51-4.49-.7-1.79-.23-3.37-.39-4.49-.5l-.59,0a1.39,1.39,0,0,1-1.24-1.23L53.67,47.34H37.76L36.19,65.22a1.26,1.26,0,0,1-1,1.21l-.87.07c-1.12.11-2.7.27-4.49.5-1.41.19-2.94.42-4.49.7l-1.17.23c-4.41.89-8.68,2.21-10.17,4.15-3,3.82,0,19.35,0,19.35H77.39s3-15.53,0-19.35C75.9,70.14,71.62,68.82,67.24,67.94Z"/><path class="cls-4" d="M63.06,39.44c-1.31-.8-3.22.74-4.28,3.45s-.86,5.54.45,6.34,3.22-.74,4.27-3.44S64.36,40.24,63.06,39.44Z"/><path class="cls-4" d="M28.37,39.44c1.31-.8,3.22.74,4.28,3.45s.85,5.54-.45,6.34-3.22-.74-4.28-3.44S27.07,40.24,28.37,39.44Z"/><path class="cls-5" d="M45.71,61.28c-3.21,0-6.22-1.54-8.82-4l-.09,1c2.62,2.54,5.66,4.12,8.91,4.12s6.3-1.56,8.92-4.11l-.09-1.06C51.94,59.74,48.93,61.28,45.71,61.28Z"/><path class="cls-6" d="M61.51,49.23A2.29,2.29,0,1,1,59.23,47,2.28,2.28,0,0,1,61.51,49.23Z"/><path class="cls-6" d="M34.49,49.23A2.29,2.29,0,1,1,32.2,47,2.29,2.29,0,0,1,34.49,49.23Z"/><path class="cls-4" d="M63.43,34.61c0,12.52-7.93,26.67-17.72,26.67S28,47.13,28,34.61s7.93-18.69,17.71-18.69S63.43,22.08,63.43,34.61Z"/><path class="cls-7" d="M45.71,15.92C35.93,15.92,28,22.08,28,34.61s7.93,26.66,17.71,26.67Z"/><path class="cls-8" d="M63.61,32.34c-.08-.76-.15-1.56-.28-2.39a20.31,20.31,0,0,0-1.58-5.19,15.74,15.74,0,0,0-3.6-4.92,16.51,16.51,0,0,0-5.61-3.34,20.44,20.44,0,0,0-6.63-1.14,21.15,21.15,0,0,0-6.66,1,16.67,16.67,0,0,0-5.69,3.2,15.33,15.33,0,0,0-3.73,4.82,20.1,20.1,0,0,0-1.67,5.16,22.68,22.68,0,0,0-.36,4.55c0,1.36.17,2.51.22,3.48.34,1.91.54,3,.54,3A12.06,12.06,0,0,1,29.75,35a28.77,28.77,0,0,0,8.42,3.33s0,0,0,0a4.57,4.57,0,0,0,.39-.73l.16-.4a1.21,1.21,0,0,0,.09-.41,2.79,2.79,0,0,0,.09-.78l0-.8.4.72a3.64,3.64,0,0,1,.29.83,1.93,1.93,0,0,1,.11.5l0,.53a3.86,3.86,0,0,1,0,.9,33.69,33.69,0,0,0,6,.55l.64,0s0,0,0,0a1.32,1.32,0,0,0,.32-.3,4.77,4.77,0,0,0,.43-.56,4.63,4.63,0,0,0,.36-.74l.13-.41a2.07,2.07,0,0,0,.08-.42,3,3,0,0,0,0-.78c-.06-.48-.09-.8-.09-.8l.43.7a3.4,3.4,0,0,1,.34.81,2.62,2.62,0,0,1,.13.5l.07.53a6.49,6.49,0,0,1,0,1.08c0,.1,0,.2-.05.3a31,31,0,0,0,11.76-3.32c2.21,1.26,2.46,5,2.47,5.19s.2-1.09.56-3c.11-1,.2-2.12.29-3.49C63.62,33.81,63.62,33.1,63.61,32.34Z"/><path class="cls-8" d="M51.93,29.89s-.13-.25-.34-.71A13.88,13.88,0,0,1,50.91,27a21.45,21.45,0,0,1-.2-8.08,23.07,23.07,0,0,1,1.54-5.42,17.21,17.21,0,0,1,4-5.75,12.87,12.87,0,0,1,3.55-2.4,12.28,12.28,0,0,1,4.64-1.09A13.1,13.1,0,0,1,69,4.94l.53.18.26.1.13,0,.06,0h0l.3.13.69.32a15.57,15.57,0,0,1,2,1.17,9.52,9.52,0,0,1,1,.83,8,8,0,0,1,.93.91c.29.34.58.68.85,1s.49.76.71,1.15A12.09,12.09,0,0,1,78,15.6a15.19,15.19,0,0,1-.19,4.06A22.59,22.59,0,0,1,77,23a50.52,50.52,0,0,1-2.1,5.34c-.71,1.57-1.37,3-1.89,4.24a16.7,16.7,0,0,0-1.1,3.36,5.82,5.82,0,0,0,0,2.61,5,5,0,0,0,.39,1,3.47,3.47,0,0,0,.44.76l.44.64c-4.19-.54-8.06-6.21-8.4-10.17-.21-2.42.58-4.66.13-7.11-.54-3-2.78-7.46-6.57-6.13-2.51.88-4.45,7.35-5.41,9.64-.35.82-.63,1.48-.79,1.95S51.93,29.89,51.93,29.89Z"/><path class="cls-6" d="M77.39,72.08c-1.46-1.89-5.57-3.2-9.85-4.08C66,74.66,56.8,79.77,45.71,79.77S25.47,74.66,23.89,68c-4.3.89-8.39,2.19-9.85,4.08-3,3.82,0,19.35,0,19.35H77.39S80.35,75.9,77.39,72.08Z"/><path class="cls-6" d="M56.91,19.39a.6.6,0,0,1-.34-.11A15.81,15.81,0,0,0,52.35,17c-.39-.14-.78-.26-1.17-.37a.57.57,0,0,1-.39-.71.56.56,0,0,1,.7-.39c.42.12.83.25,1.24.39a17.18,17.18,0,0,1,4.52,2.4.57.57,0,0,1-.34,1Z"/></g></g></g></svg>