<svg xmlns="http://www.w3.org/2000/svg" xmlns:xlink="http://www.w3.org/1999/xlink" viewBox="0 0 91.43 91.43"><defs><style>.cls-1{fill:none;}.cls-2{clip-path:url(#clip-path);}.cls-3{fill:#346178;}.cls-4{fill:#fee69f;}.cls-5{opacity:0.1;}.cls-6{fill:#fc611f;}.cls-7,.cls-9{fill:#fff;}.cls-7{opacity:0.4;}.cls-8{fill:#fdc00f;}</style><clipPath id="clip-path"><path class="cls-1" d="M91.43,45.72A45.72,45.72,0,1,1,45.71,0,45.72,45.72,0,0,1,91.43,45.72Z"/></clipPath></defs><g id="Calque_2" data-name="Calque 2"><g id="Layer_1" data-name="Layer 1"><g class="cls-2"><path class="cls-3" d="M91.43,45.72A45.72,45.72,0,1,1,45.71,0,45.72,45.72,0,0,1,91.43,45.72Z"/><path class="cls-4" d="M67.24,67.94l-1.19-.24c-1.55-.28-3.09-.51-4.49-.7-1.79-.23-3.37-.39-4.49-.5l-.59,0a1.39,1.39,0,0,1-1.24-1.23L53.67,47.34H37.76L36.19,65.22a1.26,1.26,0,0,1-1,1.21l-.87.07c-1.12.11-2.7.27-4.49.5-1.41.19-2.94.42-4.49.7l-1.16.23c-4.42.89-8.69,2.21-10.18,4.15-3,3.82,0,19.35,0,19.35H77.39s3-15.53,0-19.35C75.9,70.14,71.63,68.82,67.24,67.94Z"/><path class="cls-4" d="M63.06,39.44c-1.31-.8-3.22.74-4.28,3.45s-.86,5.54.45,6.34,3.22-.74,4.27-3.44S64.36,40.24,63.06,39.44Z"/><path class="cls-4" d="M28.37,39.44c1.31-.8,3.22.74,4.28,3.45s.85,5.54-.45,6.34-3.22-.74-4.28-3.44S27.07,40.24,28.37,39.44Z"/><path class="cls-5" d="M45.71,61.28c-3.21,0-6.22-1.54-8.82-4l-.09,1c2.62,2.54,5.66,4.12,8.91,4.12s6.3-1.56,8.92-4.11l-.09-1.06C51.94,59.74,48.93,61.28,45.71,61.28Z"/><path class="cls-6" d="M61.51,49.23A2.29,2.29,0,1,1,59.23,47,2.28,2.28,0,0,1,61.51,49.23Z"/><path class="cls-6" d="M34.49,49.23A2.29,2.29,0,1,1,32.2,47,2.29,2.29,0,0,1,34.49,49.23Z"/><path class="cls-4" d="M63.43,34.61c0,12.52-7.93,26.67-17.72,26.67S28,47.13,28,34.61s7.93-18.69,17.71-18.69S63.43,22.08,63.43,34.61Z"/><path class="cls-7" d="M45.71,15.92C35.93,15.92,28,22.08,28,34.61s7.93,26.67,17.71,26.67Z"/><path class="cls-8" d="M63.61,32.34c-.08-.76-.15-1.56-.27-2.39a20.76,20.76,0,0,0-1.59-5.19,15.74,15.74,0,0,0-3.6-4.92,16.51,16.51,0,0,0-5.61-3.34,20.45,20.45,0,0,0-6.64-1.14,21,21,0,0,0-6.64,1,16.63,16.63,0,0,0-5.7,3.2,15.48,15.48,0,0,0-3.73,4.82,20.1,20.1,0,0,0-1.67,5.16,22.68,22.68,0,0,0-.36,4.55c0,1.36.17,2.51.22,3.48.34,1.91.54,3,.54,3,0-1.59.22-8.31,5.79-8.24,11.36.15,14.58-5.19,17.06-6.92h0s.22,7.11,8.46,10.14c2.62,1,2.9,5.25,2.91,5.4s.21-1.09.56-3c.11-1,.2-2.12.29-3.49C63.62,33.81,63.62,33.1,63.61,32.34Z"/><path class="cls-6" d="M77.39,91.43S79.2,81.94,78.58,76c-6.75,2.86-18.94,4.77-32.87,4.77S19.6,78.83,12.85,76c-.62,6,1.19,15.46,1.19,15.46Z"/><path class="cls-9" d="M56.48,66.45a9.62,9.62,0,0,1-.68.86,16.54,16.54,0,0,1-2.06,2,16.88,16.88,0,0,1-3.48,2.25,13.81,13.81,0,0,1-2.27.82,12.54,12.54,0,0,1-1.25.23,11.15,11.15,0,0,1-1.32.06,10.58,10.58,0,0,1-2.48-.4,8.61,8.61,0,0,1-1.15-.38c-.38-.14-.73-.31-1.08-.47a16.52,16.52,0,0,1-1.92-1,16.13,16.13,0,0,1-1.58-1.13,16,16,0,0,1-2.85-2.77s1.39.78,3.46,1.8a37.25,37.25,0,0,0,3.56,1.53,17.66,17.66,0,0,0,2,.59,7.68,7.68,0,0,0,1,.18,8.62,8.62,0,0,0,1.1.1c.29,0,.67,0,1,0s.7-.09,1-.15a14.05,14.05,0,0,0,2-.56c.64-.24,1.28-.48,1.86-.76s1.15-.54,1.65-.81C55.13,67.31,56.48,66.45,56.48,66.45Z"/></g></g></g></svg>