<svg xmlns="http://www.w3.org/2000/svg" xmlns:xlink="http://www.w3.org/1999/xlink" viewBox="0 0 91.43 91.43"><defs><style>.cls-1{fill:none;}.cls-2{clip-path:url(#clip-path);}.cls-3{fill:#8fc3d8;}.cls-4{fill:#fdc00f;}.cls-5{fill:#fee69f;}.cls-6{opacity:0.1;}.cls-7{fill:#346178;}.cls-8{fill:#fff;opacity:0.4;}</style><clipPath id="clip-path"><path class="cls-1" d="M91.43,45.71A45.72,45.72,0,1,1,45.71,0,45.72,45.72,0,0,1,91.43,45.71Z"/></clipPath></defs><g id="Calque_2" data-name="Calque 2"><g id="Layer_1" data-name="Layer 1"><g class="cls-2"><path class="cls-3" d="M91.43,45.71A45.72,45.72,0,1,1,45.71,0,45.72,45.72,0,0,1,91.43,45.71Z"/><path class="cls-4" d="M70.27,53.67c-5.39-6.15-2.74-29.83-10.39-35.49s-20.72-5.64-28.34,0-5,29.34-10.38,35.49-.27,19.16-.27,19.16H70.54S75.7,59.86,70.27,53.67Z"/><path class="cls-5" d="M67.23,67.94,66,67.7c-1.54-.28-3.08-.51-4.48-.7-1.8-.23-3.37-.39-4.49-.5l-.59,0a1.41,1.41,0,0,1-1.25-1.23L53.67,47.34H37.76L36.19,65.22a1.27,1.27,0,0,1-1,1.21l-.86.07c-1.12.11-2.7.27-4.5.5-1.4.19-2.93.42-4.48.7l-1.17.23c-4.41.89-8.68,2.21-10.17,4.15-3,3.82,0,19.35,0,19.35H77.39s3-15.53,0-19.35C75.89,70.14,71.62,68.82,67.23,67.94Z"/><path class="cls-5" d="M63.06,39.44c-1.31-.8-3.22.74-4.28,3.45s-.86,5.54.45,6.34,3.22-.74,4.27-3.44S64.36,40.24,63.06,39.44Z"/><path class="cls-5" d="M28.37,39.44c1.3-.8,3.22.74,4.28,3.45s.85,5.54-.45,6.34-3.22-.74-4.28-3.44S27.07,40.24,28.37,39.44Z"/><path class="cls-6" d="M45.71,61.28c-3.21,0-6.22-1.54-8.82-4l-.09,1c2.62,2.54,5.66,4.12,8.91,4.12s6.3-1.56,8.92-4.11l-.09-1.06C51.94,59.74,48.93,61.28,45.71,61.28Z"/><path class="cls-7" d="M61.51,50.53c0,2-1,3.59-2.28,3.59s-2.29-1.61-2.29-3.59S58,47,59.23,47,61.51,48.55,61.51,50.53Z"/><path class="cls-7" d="M34.48,50.53c0,2-1,3.59-2.28,3.59s-2.29-1.61-2.29-3.59S30.94,47,32.2,47,34.48,48.55,34.48,50.53Z"/><path class="cls-4" d="M45.71,15.92C35.93,15.92,28,22.08,28,34.61a31.55,31.55,0,0,0,.35,4.62h.13a5.17,5.17,0,0,1,3.73-4.71c4-1.3,6.93-4.37,9-7.69h0a15,15,0,0,0,13.79,5c4.74-.63,7.91,7.39,7.91,7.39h.14a33,33,0,0,0,.34-4.62C63.43,22.08,55.5,15.92,45.71,15.92Z"/><path class="cls-5" d="M63,39.23s-3.17-8-7.91-7.39a15,15,0,0,1-13.79-5h0c-2.12,3.32-5.07,6.39-9,7.69a5.17,5.17,0,0,0-3.73,4.71h-.13C30,50.37,37.12,61.28,45.71,61.28S61.47,50.37,63.09,39.23Z"/><path class="cls-8" d="M45.71,30.34a13.75,13.75,0,0,1-4.46-3.51h0c-2.12,3.32-5.07,6.39-9,7.69a5.17,5.17,0,0,0-3.73,4.71h-.13C30,50.37,37.12,61.28,45.71,61.28h0Z"/><path class="cls-7" d="M77.39,72.08c-1.5-1.94-5.77-3.26-10.16-4.14L66,67.7c-1.43-.26-2.84-.47-4.16-.65h-.37a3.28,3.28,0,0,1-.3.28c-.24.19-.58.51-1,.82a21.35,21.35,0,0,1-3.59,2.17,24.43,24.43,0,0,1-5.08,1.76,26,26,0,0,1-5.82.64,26.62,26.62,0,0,1-5.82-.65,24.92,24.92,0,0,1-5.07-1.77,22,22,0,0,1-3.59-2.15c-.44-.31-.78-.63-1-.82l-.31-.28h-.37c-1.31.18-2.72.39-4.16.65l-1.17.23c-4.41.89-8.68,2.21-10.17,4.15-3,3.82,0,19.35,0,19.35H77.39S80.35,75.9,77.39,72.08Z"/></g></g></g></svg>