<svg xmlns="http://www.w3.org/2000/svg" xmlns:xlink="http://www.w3.org/1999/xlink" viewBox="0 0 91.43 91.43"><defs><style>.cls-1{fill:none;}.cls-2{clip-path:url(#clip-path);}.cls-3{fill:#fdc00f;}.cls-4{fill:#8f6c08;}.cls-5{fill:#fee69f;}.cls-6{opacity:0.1;}.cls-7{fill:#8fc3d8;}.cls-8{fill:#fff;opacity:0.4;}</style><clipPath id="clip-path"><path class="cls-1" d="M91.43,45.71A45.72,45.72,0,1,1,45.71,0,45.72,45.72,0,0,1,91.43,45.71Z"/></clipPath></defs><g id="Calque_2" data-name="Calque 2"><g id="Layer_1" data-name="Layer 1"><g class="cls-2"><path class="cls-3" d="M91.43,45.71A45.72,45.72,0,1,1,45.71,0,45.72,45.72,0,0,1,91.43,45.71Z"/><path class="cls-4" d="M61.24,24.65S71.81,51.6,66,91.43H45.7V24.65Z"/><path class="cls-5" d="M53.66,76.53l.26-.66c.12-.3.23-.59.34-.88.23-.59.44-1.17.64-1.72l0-.08h0a66.82,66.82,0,0,0,2-6.69l-.59,0a1.39,1.39,0,0,1-1.24-1.23L53.56,47.34H37.65L36,66.36s-.66,0-1.73.14a63.77,63.77,0,0,0,2,6.73L37,75l.34.86c.08.22.17.44.26.66.23.58.47,1.16.73,1.77a118.64,118.64,0,0,0,6.65,13.13h1.35A118.64,118.64,0,0,0,52.93,78.3C53.19,77.69,53.43,77.11,53.66,76.53Z"/><path class="cls-6" d="M45.71,61.28c-3.21,0-6.22-1.54-8.82-4l-.09,1c2.62,2.54,5.66,4.12,8.91,4.12s6.3-1.56,8.92-4.11l-.09-1.06C51.94,59.74,48.93,61.28,45.71,61.28Z"/><path class="cls-7" d="M34.36,66.5c-1.12.1-2.7.27-4.49.5-1.41.19-2.94.42-4.49.71C20.6,68.58,15.67,70,14,72.08c-3,3.82,0,19.35,0,19.35H45A118.64,118.64,0,0,1,38.39,78.3,76,76,0,0,1,34.36,66.5Z"/><path class="cls-7" d="M77.39,72.08c-1.63-2.11-6.56-3.5-11.34-4.37-1.55-.29-3.08-.52-4.48-.71-1.8-.23-3.38-.4-4.5-.5a74.85,74.85,0,0,1-4,11.8,118.64,118.64,0,0,1-6.65,13.13h31S80.35,75.9,77.39,72.08Z"/><path class="cls-4" d="M30.19,24.65s-10.57,27-4.73,66.78H45.73V24.65Z"/><path class="cls-5" d="M63.06,39.44c-1.31-.8-3.22.74-4.28,3.45s-.85,5.54.45,6.34,3.22-.74,4.27-3.44S64.36,40.24,63.06,39.44Z"/><path class="cls-5" d="M28.37,39.44c1.31-.8,3.22.74,4.28,3.45s.85,5.54-.45,6.34-3.22-.74-4.28-3.44S27.07,40.24,28.37,39.44Z"/><path class="cls-7" d="M56.17,52.85l0-.26c0-.16,0-.42.11-.76a12.62,12.62,0,0,1,.82-2.6A9.6,9.6,0,0,1,58,47.64a2.48,2.48,0,0,1,.73-.71.88.88,0,0,1,.56-.11,1.06,1.06,0,0,1,.53.2,2.56,2.56,0,0,1,.71.83,5.94,5.94,0,0,1,.52,1,14.1,14.1,0,0,1,.73,2.1,11,11,0,0,1,.37,2.25,5.8,5.8,0,0,1-.23,2.36,3.6,3.6,0,0,1-.72,1.17,2.82,2.82,0,0,1-1.24.74,3.93,3.93,0,0,1-.67.12h-.37l-.22,0a1.33,1.33,0,0,1-.31-.06L58,57.34a2.54,2.54,0,0,1-.59-.34,3,3,0,0,1-1.09-1.71A6.39,6.39,0,0,1,56.14,54c0-.71,0-1.09,0-1.09Zm1.44,0s0,.33.15.89a3.35,3.35,0,0,0,.33.87,1.5,1.5,0,0,0,.56.66c.05,0,.11.08.13.07h0s0,0,.11,0l.22,0h.14c-.05,0,.12,0-.1,0h0a1.77,1.77,0,0,0,.23,0,1.17,1.17,0,0,0,.81-.64,5.12,5.12,0,0,0,.5-1.71,10.37,10.37,0,0,0,.09-2A10.15,10.15,0,0,0,60.53,49a3.5,3.5,0,0,0-.92-1.72c-.49-.46-1.08,0-1.35.54a4.76,4.76,0,0,0-.54,1.59,12.22,12.22,0,0,0-.16,2.52c0,.57,0,1,0,1Z"/><path class="cls-7" d="M29.25,52.85l0-.26c0-.16,0-.42.11-.76a12.62,12.62,0,0,1,.82-2.6,9.6,9.6,0,0,1,.86-1.59,2.48,2.48,0,0,1,.73-.71.88.88,0,0,1,.56-.11,1.06,1.06,0,0,1,.53.2,2.72,2.72,0,0,1,.72.83,8,8,0,0,1,.51,1,15.33,15.33,0,0,1,.73,2.1,12.58,12.58,0,0,1,.38,2.25A5.83,5.83,0,0,1,35,55.52a3.26,3.26,0,0,1-.71,1.17,2.82,2.82,0,0,1-1.24.74,3.93,3.93,0,0,1-.67.12H32l-.22,0a1.33,1.33,0,0,1-.31-.06l-.37-.12A2.54,2.54,0,0,1,30.5,57a3.09,3.09,0,0,1-1.1-1.71A7,7,0,0,1,29.22,54c0-.71,0-1.09,0-1.09Zm1.44,0s0,.33.15.89a3.7,3.7,0,0,0,.32.87,1.58,1.58,0,0,0,.57.66c.05,0,.11.08.13.07h0s0,0,.11,0l.22,0h.14s.12,0-.11,0h0a1.77,1.77,0,0,0,.23,0,1.14,1.14,0,0,0,.8-.64,5.1,5.1,0,0,0,.51-1.71,9.67,9.67,0,0,0,.08-2,9.48,9.48,0,0,0-.3-2.06,3.5,3.5,0,0,0-.92-1.72c-.49-.46-1.08,0-1.35.54a4.76,4.76,0,0,0-.54,1.59,12.22,12.22,0,0,0-.16,2.52c0,.57.05,1,.05,1Z"/><path class="cls-5" d="M63.43,34.61c0,12.52-7.93,26.67-17.72,26.67S28,47.13,28,34.61s7.93-18.69,17.71-18.69S63.43,22.08,63.43,34.61Z"/><path class="cls-8" d="M45.71,15.92C35.93,15.92,28,22.09,28,34.61s7.93,26.66,17.71,26.67Z"/><path class="cls-4" d="M45.71,15.35c-11.1,0-18.29,7.56-18.29,19.26,0,.49,0,1,0,1.48l.58,0H63.4l.56,0c0-.5,0-1,0-1.48C64,22.91,56.83,15.35,45.71,15.35Z"/></g></g></g></svg>