<svg xmlns="http://www.w3.org/2000/svg" viewBox="0 0 22 18"><defs><style>.cls-1{fill:#969cba;fill-opacity:0.2;stroke:#969cba;stroke-linecap:round;stroke-linejoin:round;stroke-width:2px;}</style></defs><g id="Calque_2" data-name="Calque 2"><g id="Calque_1-2" data-name="Calque 1"><path class="cls-1" d="M21,15.22a1.67,1.67,0,0,1-.59,1.26A2.13,2.13,0,0,1,19,17H3a2.13,2.13,0,0,1-1.41-.52A1.67,1.67,0,0,1,1,15.22V2.78a1.67,1.67,0,0,1,.59-1.26A2.13,2.13,0,0,1,3,1H8l2,2.67h9a2.08,2.08,0,0,1,1.41.52A1.65,1.65,0,0,1,21,5.44Z"/></g></g></svg>